<svg width="377" height="102" xmlns="http://www.w3.org/2000/svg">
 <g>
  <title>Layer 1</title>
  <path fill="none" opacity="undefined" d="m569,-3l400,0l0,400l-400,0l0,-400z" id="svg_1"/>
  <g data-name="icon" fill="#ff7248" data="id:7524293" transform="translate(-3.4736 128.569) scale(1.42843 1.42843)" id="svg_2">
   <path d="m72.7675,-76.15867l0,20.707c0,0.22266 -0.17969,0.40234 -0.40234,0.40234l-8.7812,0l0,20.707c0,0.22266 -0.17969,0.40234 -0.40234,0.40234l-3.3242,0c-0.22266,0 -0.40234,-0.17969 -0.40234,-0.40234l0,-22.855l-2.918,0c-0.22266,0 -0.40234,-0.17969 -0.40234,-0.40234l0,-20.902l-1.918,0c-0.22266,0 -0.40234,-0.17969 -0.40234,-0.40234l0,-2.75l-1.0664,0l0,-2.2852c0,-0.26562 -0.21484,-0.48047 -0.48047,-0.48047s-0.48047,0.21484 -0.48047,0.48047l0,2.2852l-0.78125,0l0,-4.0781c0,-0.26562 -0.21484,-0.48047 -0.48047,-0.48047s-0.48047,0.21484 -0.48047,0.48047l0,4.0781l-1.3359,0l0,2.75c0,0.22266 -0.17969,0.40234 -0.40234,0.40234l-1.918,0l0,22.074c0,0.22266 -0.17969,0.40234 -0.40234,0.40234l-1.9414,0l0,13.277c0,0.22266 -0.17969,0.40234 -0.40234,0.40234l-3.3242,0c-0.22266,0 -0.40234,-0.17969 -0.40234,-0.40234l0,-22.664l-8.9062,-0.05859l-8.4648,6.6953l0,20.914c0,0.22266 -0.17969,0.40234 -0.40234,0.40234l-3.9102,0c-0.22266,0 -0.40234,-0.17969 -0.40234,-0.40234l0,-9.1719l-11.898,0l0,23.234l13.102,0l0,-4.4336c0,-0.22266 0.17969,-0.40234 0.40234,-0.40234l14.816,0c0.22266,0 0.40234,0.17969 0.40234,0.40234l0,3.2266l13.406,0c0,-0.46094 -0.00391,-0.92188 -0.00391,-1.3828c0,-0.22266 0.17969,-0.40234 0.40234,-0.40234l6.0156,-0.02735l0.03907,0c0.22266,0 0.40234,0.17969 0.40234,0.40234l0,2.6211l15.543,0l0.07421,-1.3711c0.01172,-0.21094 0.1875,-0.37891 0.39844,-0.37891l13.34,-0.05078l0.00391,-50.562l-11.50831,-0.00031zm-61.426,39.188c0,0.22266 -0.17969,0.40234 -0.40234,0.40234l-1.957,0c-0.22266,0 -0.40234,-0.17969 -0.40234,-0.40234l0,-1.957c0,-0.22266 0.17969,-0.40234 0.40234,-0.40234l1.957,0c0.22266,0 0.40234,0.17969 0.40234,0.40234l0,1.957zm0,-3.918c0,0.22266 -0.17969,0.40234 -0.40234,0.40234l-1.957,0c-0.22266,0 -0.40234,-0.17969 -0.40234,-0.40234l0,-1.957c0,-0.22266 0.17969,-0.40234 0.40234,-0.40234l1.957,0c0.22266,0 0.40234,0.17969 0.40234,0.40234l0,1.957zm3.918,3.918c0,0.22266 -0.17969,0.40234 -0.40234,0.40234l-1.957,0c-0.22266,0 -0.40234,-0.17969 -0.40234,-0.40234l0,-1.957c0,-0.22266 0.17969,-0.40234 0.40234,-0.40234l1.957,0c0.22266,0 0.40234,0.17969 0.40234,0.40234l0,1.957zm0,-3.918c0,0.22266 -0.17969,0.40234 -0.40234,0.40234l-1.957,0c-0.22266,0 -0.40234,-0.17969 -0.40234,-0.40234l0,-1.957c0,-0.22266 0.17969,-0.40234 0.40234,-0.40234l1.957,0c0.22266,0 0.40234,0.17969 0.40234,0.40234l0,1.957zm13.641,-8.0781c0,0.22266 -0.17969,0.40234 -0.40234,0.40234l-1.957,0c-0.22266,0 -0.40234,-0.17969 -0.40234,-0.40234l0,-1.957c0,-0.22266 0.17969,-0.40234 0.40234,-0.40234l1.957,0c0.22266,0 0.40234,0.17969 0.40234,0.40234l0,1.957zm0,-3.918c0,0.22266 -0.17969,0.40234 -0.40234,0.40234l-1.957,0c-0.22266,0 -0.40234,-0.17969 -0.40234,-0.40234l0,-1.957c0,-0.22266 0.17969,-0.40234 0.40234,-0.40234l1.957,0c0.22266,0 0.40234,0.17969 0.40234,0.40234l0,1.957zm3.918,3.918c0,0.22266 -0.17969,0.40234 -0.40234,0.40234l-1.957,0c-0.22266,0 -0.40234,-0.17969 -0.40234,-0.40234l0,-1.957c0,-0.22266 0.17969,-0.40234 0.40234,-0.40234l1.957,0c0.22266,0 0.40234,0.17969 0.40234,0.40234l0,1.957zm0,-3.918c0,0.22266 -0.17969,0.40234 -0.40234,0.40234l-1.957,0c-0.22266,0 -0.40234,-0.17969 -0.40234,-0.40234l0,-1.957c0,-0.22266 0.17969,-0.40234 0.40234,-0.40234l1.957,0c0.22266,0 0.40234,0.17969 0.40234,0.40234l0,1.957zm0,-3.918c0,0.22266 -0.17969,0.40234 -0.40234,0.40234l-1.957,0c-0.22266,0 -0.40234,-0.17969 -0.40234,-0.40234l0,-1.957c0,-0.22266 0.17969,-0.40234 0.40234,-0.40234l1.957,0c0.22266,0 0.40234,0.17969 0.40234,0.40234l0,1.957zm3.918,7.8359c0,0.22266 -0.17969,0.40234 -0.40234,0.40234l-1.957,0c-0.22266,0 -0.40234,-0.17969 -0.40234,-0.40234l0,-1.957c0,-0.22266 0.17969,-0.40234 0.40234,-0.40234l1.957,0c0.22266,0 0.40234,0.17969 0.40234,0.40234l0,1.957zm0,-3.918c0,0.22266 -0.17969,0.40234 -0.40234,0.40234l-1.957,0c-0.22266,0 -0.40234,-0.17969 -0.40234,-0.40234l0,-1.957c0,-0.22266 0.17969,-0.40234 0.40234,-0.40234l1.957,0c0.22266,0 0.40234,0.17969 0.40234,0.40234l0,1.957zm0,-3.918c0,0.22266 -0.17969,0.40234 -0.40234,0.40234l-1.957,0c-0.22266,0 -0.40234,-0.17969 -0.40234,-0.40234l0,-1.957c0,-0.22266 0.17969,-0.40234 0.40234,-0.40234l1.957,0c0.22266,0 0.40234,0.17969 0.40234,0.40234l0,1.957zm13.875,-3.6211l1.293,0l0,1.9297c0,0.35547 -0.28906,0.64453 -0.64453,0.64453c-0.35547,0 -0.64453,-0.28906 -0.64453,-0.64453l0,-1.9297l-0.00394,0zm0,-2.2383l0,-2.5312l1.293,0l0,2.5312l-1.293,0zm4.0039,-4.7734l-1.293,0l0,-3.3281l1.293,0l0,3.3281zm-2.7109,0l-1.293,0l0,-3.3281l1.293,0l0,3.3281zm-2.7109,0l-1.293,0l0,-3.3281l1.293,0l0,3.3281zm-1.293,2.2383l1.293,0l0,2.5312l-1.293,0l0,-2.5312zm5.4258,0l1.293,0l0,2.5312l-1.293,0l0,-2.5312zm0.64453,-11.387c0.35547,0 0.64453,0.28906 0.64453,0.64453l0,2.9336l-1.293,0l0,-2.9336c0,-0.35547 0.28906,-0.64453 0.64453,-0.64453l0.00394,0zm-2.0664,0.64453l0,2.9336l-1.293,0l0,-2.9336c0,-0.35547 0.28906,-0.64453 0.64453,-0.64453s0.64453,0.28906 0.64453,0.64453l0.00394,0zm-4.0039,0c0,-0.35547 0.28906,-0.64453 0.64453,-0.64453c0.35547,0 0.64453,0.28906 0.64453,0.64453l0,2.9336l-1.293,0l0,-2.9336l0.00394,0zm0.64453,18.086c-0.35547,0 -0.64453,-0.28906 -0.64453,-0.64453l0,-1.9297l1.293,0l0,1.9297c0,0.35547 -0.28906,0.64453 -0.64453,0.64453l-0.00394,0zm4.5938,13.172c0,0.22266 -0.17969,0.40234 -0.40234,0.40234l-1.957,0c-0.22266,0 -0.40234,-0.17969 -0.40234,-0.40234l0,-1.957c0,-0.22266 0.17969,-0.40234 0.40234,-0.40234l1.957,0c0.22266,0 0.40234,0.17969 0.40234,0.40234l0,1.957zm0,-3.918c0,0.22266 -0.17969,0.40234 -0.40234,0.40234l-1.957,0c-0.22266,0 -0.40234,-0.17969 -0.40234,-0.40234l0,-1.957c0,-0.22266 0.17969,-0.40234 0.40234,-0.40234l1.957,0c0.22266,0 0.40234,0.17969 0.40234,0.40234l0,1.957zm0.18359,-9.9023l0,-1.9297l1.293,0l0,1.9297c0,0.35547 -0.28906,0.64453 -0.64453,0.64453c-0.35547,0 -0.64453,-0.28906 -0.64453,-0.64453l-0.00394,0zm3.7344,13.82c0,0.22266 -0.17969,0.40234 -0.40234,0.40234l-1.957,0c-0.22266,0 -0.40234,-0.17969 -0.40234,-0.40234l0,-1.957c0,-0.22266 0.17969,-0.40234 0.40234,-0.40234l1.957,0c0.22266,0 0.40234,0.17969 0.40234,0.40234l0,1.957zm0,-3.918c0,0.22266 -0.17969,0.40234 -0.40234,0.40234l-1.957,0c-0.22266,0 -0.40234,-0.17969 -0.40234,-0.40234l0,-1.957c0,-0.22266 0.17969,-0.40234 0.40234,-0.40234l1.957,0c0.22266,0 0.40234,0.17969 0.40234,0.40234l0,1.957zm0,-3.918c0,0.22266 -0.17969,0.40234 -0.40234,0.40234l-1.957,0c-0.22266,0 -0.40234,-0.17969 -0.40234,-0.40234l0,-1.957c0,-0.22266 0.17969,-0.40234 0.40234,-0.40234l1.957,0c0.22266,0 0.40234,0.17969 0.40234,0.40234l0,1.957zm13.824,1.5195l1.1523,0l0,1.1523l-1.1523,0l0,-1.1523zm-1.957,9.3906c0,0.22266 -0.17969,0.40234 -0.40234,0.40234l-1.957,0c-0.22266,0 -0.40234,-0.17969 -0.40234,-0.40234l0,-1.957c0,-0.22266 0.17969,-0.40234 0.40234,-0.40234l1.957,0c0.22266,0 0.40234,0.17969 0.40234,0.40234l0,1.957zm0,-3.918c0,0.22266 -0.17969,0.40234 -0.40234,0.40234l-1.957,0c-0.22266,0 -0.40234,-0.17969 -0.40234,-0.40234l0,-1.957c0,-0.22266 0.17969,-0.40234 0.40234,-0.40234l1.957,0c0.22266,0 0.40234,0.17969 0.40234,0.40234l0,1.957zm0,-3.918c0,0.22266 -0.17969,0.40234 -0.40234,0.40234l-1.957,0c-0.22266,0 -0.40234,-0.17969 -0.40234,-0.40234l0,-1.957c0,-0.22266 0.17969,-0.40234 0.40234,-0.40234l1.957,0c0.22266,0 0.40234,0.17969 0.40234,0.40234l0,1.957zm3.918,7.8359c0,0.22266 -0.17969,0.40234 -0.40234,0.40234l-1.957,0c-0.22266,0 -0.40234,-0.17969 -0.40234,-0.40234l0,-1.957c0,-0.22266 0.17969,-0.40234 0.40234,-0.40234l1.957,0c0.22266,0 0.40234,0.17969 0.40234,0.40234l0,1.957zm0,-3.918c0,0.22266 -0.17969,0.40234 -0.40234,0.40234l-1.957,0c-0.22266,0 -0.40234,-0.17969 -0.40234,-0.40234l0,-1.957c0,-0.22266 0.17969,-0.40234 0.40234,-0.40234l1.957,0c0.22266,0 0.40234,0.17969 0.40234,0.40234l0,1.957zm5.375,-17.348c0,0.22266 -0.17969,0.40234 -0.40234,0.40234l-1.957,0c-0.22266,0 -0.40234,-0.17969 -0.40234,-0.40234l0,-1.957c0,-0.22266 0.17969,-0.40234 0.40234,-0.40234l1.957,0c0.22266,0 0.40234,0.17969 0.40234,0.40234l0,1.957zm0,-3.918c0,0.22266 -0.17969,0.40234 -0.40234,0.40234l-1.957,0c-0.22266,0 -0.40234,-0.17969 -0.40234,-0.40234l0,-1.957c0,-0.22266 0.17969,-0.40234 0.40234,-0.40234l1.957,0c0.22266,0 0.40234,0.17969 0.40234,0.40234l0,1.957zm0,-3.918c0,0.22266 -0.17969,0.40234 -0.40234,0.40234l-1.957,0c-0.22266,0 -0.40234,-0.17969 -0.40234,-0.40234l0,-1.957c0,-0.22266 0.17969,-0.40234 0.40234,-0.40234l1.957,0c0.22266,0 0.40234,0.17969 0.40234,0.40234l0,1.957zm3.918,7.8359c0,0.22266 -0.17969,0.40234 -0.40234,0.40234l-1.957,0c-0.22266,0 -0.40234,-0.17969 -0.40234,-0.40234l0,-1.957c0,-0.22266 0.17969,-0.40234 0.40234,-0.40234l1.957,0c0.22266,0 0.40234,0.17969 0.40234,0.40234l0,1.957zm0,-3.918c0,0.22266 -0.17969,0.40234 -0.40234,0.40234l-1.957,0c-0.22266,0 -0.40234,-0.17969 -0.40234,-0.40234l0,-1.957c0,-0.22266 0.17969,-0.40234 0.40234,-0.40234l1.957,0c0.22266,0 0.40234,0.17969 0.40234,0.40234l0,1.957zm0,-3.918c0,0.22266 -0.17969,0.40234 -0.40234,0.40234l-1.957,0c-0.22266,0 -0.40234,-0.17969 -0.40234,-0.40234l0,-1.957c0,-0.22266 0.17969,-0.40234 0.40234,-0.40234l1.957,0c0.22266,0 0.40234,0.17969 0.40234,0.40234l0,1.957z" id="svg_3"/>
  </g>
  <g data-name="business_name" fill="#282b2f" data="id:163" transform="translate(146.698 142.761) scale(1.10527 1.10527)" id="svg_4">
   <path d="m0.27437,-81.06026c-4,0 -7.72,-1.56 -10.32,-4.12c-1.28,-1.28 -2.32,-2.84 -3.08,-4.68c-0.76,-1.88 -1.16,-3.88 -1.16,-6c0,-2.16 0.4,-4.2 1.2,-6.08s1.84,-3.48 3.16,-4.76c2.68,-2.6 6.4,-4.16 10.32,-4.16c3.08,0 5.88,0.92 7.76,2.24c0.96,0.64 1.8,1.4 2.56,2.24c1.48,1.72 2.28,3.44 2.72,5.12l-2.92,1.04c-0.24,-0.96 -0.64,-2 -1.72,-3.52c-0.56,-0.76 -1.16,-1.44 -1.88,-2.04s-1.64,-1.12 -2.8,-1.52c-1.16,-0.44 -2.4,-0.64 -3.8,-0.64c-3.04,0 -5.96,1.24 -8,3.28c-2.08,2.08 -3.4,5.16 -3.4,8.6c0,2.28 0.48,4.36 1.48,6.2c0.96,1.84 2.32,3.28 4.12,4.32c1.72,1.04 3.68,1.56 5.84,1.56c2.68,0 5,-0.92 6.4,-2.04c0.72,-0.56 1.36,-1.2 1.92,-2c0.56,-0.76 0.96,-1.44 1.24,-2c0.24,-0.56 0.48,-1.16 0.68,-1.76l2.92,1.04c-0.44,1.56 -1.2,3.16 -2.68,4.96c-0.72,0.88 -1.6,1.68 -2.52,2.36c-1.92,1.36 -4.84,2.36 -8.04,2.36zm17.88,-25.76c-0.4,-0.44 -0.64,-0.96 -0.64,-1.56s0.24,-1.12 0.64,-1.56c0.4,-0.4 0.96,-0.64 1.56,-0.64s1.12,0.24 1.52,0.64c0.44,0.44 0.64,0.96 0.64,1.56s-0.2,1.12 -0.64,1.56c-0.4,0.4 -0.92,0.64 -1.52,0.64s-1.16,-0.24 -1.56,-0.64zm0.08,25.44l0,-19.88l2.92,0l0,19.88l-2.92,0zm16.44,0.16c-4.32,0 -5.64,-2.4 -5.64,-5.32l0,-12.16l-3.68,0l0,-2.56l3.68,0l0,-5.72l2.88,0l0,5.72l5.04,0l0,2.56l-5.04,0l0,12.12c0,1.84 1.08,2.8 3.24,2.8c0.68,0 1.28,-0.08 1.8,-0.16l0,2.4c-0.64,0.2 -1.4,0.32 -2.28,0.32zm11.76,9.64l-3.16,0l5.16,-11.16l-9.04,-18.52l3.32,0l7.28,15.36l6.92,-15.36l3.12,0l-13.6,29.68zm39.6,-9.8l-10.88,0l0,-29.16l10.48,0c5.28,-0.08 9.4,2.64 9.4,7.32c0,0.68 -0.04,1.28 -0.4,2.4c-0.16,0.56 -0.4,1.04 -0.72,1.52c-0.6,0.96 -1.8,2.08 -3.32,2.76c2.04,0.52 3.68,1.76 4.52,3.16s1.2,2.8 1.2,4c0,2.72 -1.16,4.84 -3.08,6.12c-1.92,1.24 -4.4,1.88 -7.2,1.88zm-0.64,-26.36l-7.2,0l0,10.16l6.96,0c2.28,0 3.96,-0.48 5.08,-1.48s1.68,-2.24 1.68,-3.8c0,-3.56 -3.2,-4.88 -6.52,-4.88zm0.12,12.88l-7.32,0l0,10.68l7.92,0c3.16,0 7.08,-1.28 7.08,-5.4c0,-2.52 -1.56,-3.92 -3.52,-4.6c-1.36,-0.52 -2.68,-0.68 -4.16,-0.68zm15.92,-6.4l2.88,0l0,11.56c0,1.84 0.48,3.32 1.44,4.4c0.92,1.12 2.28,1.64 4.08,1.64c1.72,0 3.12,-0.6 4.24,-1.8s1.68,-2.68 1.68,-4.48l0,-11.32l2.88,0l0,19.88l-2.84,0l0,-3.64c-1.6,2.68 -3.84,4.04 -6.84,4.04c-2.36,0 -4.2,-0.76 -5.56,-2.2c-1.32,-1.48 -1.96,-3.4 -1.96,-5.8l0,-12.28zm23.68,-5.56c-0.4,-0.44 -0.64,-0.96 -0.64,-1.56s0.24,-1.12 0.64,-1.56c0.4,-0.4 0.96,-0.64 1.56,-0.64s1.12,0.24 1.52,0.64c0.44,0.44 0.64,0.96 0.64,1.56s-0.2,1.12 -0.64,1.56c-0.4,0.4 -0.92,0.64 -1.52,0.64s-1.16,-0.24 -1.56,-0.64zm0.08,25.44l0,-19.88l2.92,0l0,19.88l-2.92,0zm9.48,0l0,-30.36l2.92,0l0,30.36l-2.92,0zm8.04,-9.96c0,-2.6 0.96,-5.16 2.56,-7.08c1.6,-1.96 4.04,-3.2 6.76,-3.2c1.84,0 3.48,0.52 4.72,1.4s2.12,1.84 3,3.12l0,-14.6l2.88,0l0,30.32l-2.84,0l0,-4.24c-1.84,3.04 -4.44,4.52 -7.76,4.52c-2.76,0 -5.2,-1.2 -6.8,-3.08c-1.56,-1.88 -2.52,-4.44 -2.52,-7.16zm9.92,7.72c4.08,0.04 7.24,-3.76 7.16,-7.76c0,-2.6 -1.28,-5.08 -3.48,-6.56c-1.12,-0.72 -2.36,-1.08 -3.68,-1.08c-2.12,0 -3.8,0.72 -5.04,2.2c-1.28,1.48 -1.92,3.32 -1.92,5.56c0,2.76 1.12,5.12 3.24,6.56c1.08,0.72 2.32,1.08 3.72,1.08zm34.12,-6.8l-16.08,0c0.12,1.96 0.84,3.56 2.2,4.84c1.36,1.32 3,1.96 4.92,1.96c3,0 5.24,-1.48 6.16,-4.24l2.56,0.8c-0.56,1.88 -1.64,3.36 -3.24,4.44c-1.6,1.04 -3.4,1.6 -5.44,1.6c-1.88,0 -3.6,-0.48 -5.16,-1.4s-2.76,-2.16 -3.6,-3.76c-0.88,-1.56 -1.32,-3.28 -1.32,-5.16c0,-1.8 0.4,-3.48 1.24,-5.04c0.8,-1.6 1.96,-2.84 3.48,-3.8c1.48,-0.96 3.16,-1.44 4.96,-1.44c1.96,0 3.68,0.44 5.12,1.36c1.44,0.88 2.52,2.12 3.2,3.64c0.72,1.52 1.04,3.24 1.04,5.24c0,0.2 0,0.52 -0.04,0.96zm-16.04,-2.48l13.16,0c-0.2,-1.84 -0.88,-3.32 -2,-4.48c-1.12,-1.12 -2.6,-1.68 -4.44,-1.68c-1.72,0 -3.16,0.6 -4.44,1.8c-1.28,1.24 -2.04,2.68 -2.28,4.36zm21.08,-8.36l2.84,0l0,3.92c0.96,-1.96 2.56,-3.28 4.08,-3.84c0.76,-0.28 1.56,-0.4 2.36,-0.4c0.44,0 0.76,0 0.96,0.08l0,3.08c-0.32,-0.08 -0.72,-0.08 -1.12,-0.08c-4.72,0 -6.2,3.88 -6.2,7.4l0,9.72l-2.92,0l0,-19.88z" id="svg_5"/>
  </g>
  <g data-name="slogan" fill="#ff7248" data="id:351" transform="translate(146.854 207.241) scale(0.529522 0.529522)" id="svg_6">
   <path d="m-19.10442,-240.93979l-9.12,0l0,-28.32l8.36,0c5.88,0 8.92,2.36 8.92,7.48c0,2.96 -1.84,5.24 -5.08,5.88l0,0.08c3.88,0.24 6.32,3.2 6.32,6.96c0,5.2 -3.8,7.92 -9.4,7.92zm-6.48,-2.4l6.24,0c4.48,0 7,-2.08 7,-5.44c0,-3.84 -2.96,-5.84 -6.72,-5.84l-6.52,0l0,11.28zm0,-13.68l5.64,0c3.84,0 6.36,-1.76 6.36,-4.76c0,-3.36 -2.08,-5.08 -6,-5.08l-6,0l0,9.84zm21.68,-2.4l2.4,0l0,10.8c0,4.08 1.52,6 4.64,6c3.88,0 6.4,-2.84 6.4,-7.64l0,-9.16l2.4,0l0,13.48c0,0.4 0.2,4.68 0.2,5l-2.4,0c-0.04,-1.04 -0.04,-2.68 -0.16,-3.24l-0.12,0c-1.08,2.28 -3.6,3.72 -6.32,3.72c-4.68,0 -7.04,-2.52 -7.04,-8.04l0,-10.92zm24.04,-9.12c1.04,0 1.8,0.8 1.8,1.8s-0.76,1.8 -1.8,1.8c-1,0 -1.8,-0.8 -1.8,-1.8s0.8,-1.8 1.8,-1.8zm-1.2,9.12l2.4,0l0,18.48l-2.4,0l0,-18.48zm9.6,-11.76l2.4,0l0,30.24l-2.4,0l0,-30.24zm17.88,30.72c-5.64,0 -9.72,-4.12 -9.72,-9.72c0,-5.64 4.12,-9.72 9.72,-9.72c3.04,0 6.04,1.36 7.4,3.72l0.08,0l0,-15l2.4,0l0,30.24l-2.4,0l0,-3.24l-0.08,0c-1.44,2.52 -4.56,3.72 -7.4,3.72zm-7.32,-9.72c0,4.32 2.96,7.56 7.32,7.56c4.24,0 7.72,-3.32 7.72,-7.56s-3.52,-7.56 -7.76,-7.56s-7.28,3.24 -7.28,7.56zm38.4,9.32l-7.52,-18.56l2.68,0l6.12,15.56l5.96,-15.56l2.56,0l-9.48,24.12c-1,2.56 -2.56,3.96 -5.12,3.96c-0.8,0 -1.52,-0.12 -2.36,-0.36l0.24,-2.24c0.64,0.2 1.44,0.44 2.16,0.44c1.24,0 2.16,-0.72 3.04,-2.96l1.72,-4.4zm22.28,-19.04c5.64,0 9.72,4.08 9.72,9.72c0,5.52 -3.96,9.72 -9.72,9.72c-5.68,0 -9.72,-4.08 -9.72,-9.72c0,-5.6 4,-9.72 9.72,-9.72zm-7.32,9.72c0,4.32 2.96,7.56 7.32,7.56c4.32,0 7.32,-3.2 7.32,-7.56s-3,-7.56 -7.36,-7.56c-4.24,0 -7.28,3.2 -7.28,7.56zm22.2,-9.24l2.4,0l0,10.8c0,4.08 1.52,6 4.64,6c3.88,0 6.4,-2.84 6.4,-7.64l0,-9.16l2.4,0l0,13.48c0,0.4 0.2,4.68 0.2,5l-2.4,0c-0.04,-1.04 -0.04,-2.68 -0.16,-3.24l-0.12,0c-1.08,2.28 -3.6,3.72 -6.32,3.72c-4.68,0 -7.04,-2.52 -7.04,-8.04l0,-10.92zm30.68,-0.48c0.44,0 0.84,0.04 1.4,0.2l-0.28,2.36c-0.32,-0.12 -0.64,-0.16 -0.96,-0.16c-3.88,0 -6,2.64 -6,6.48l0,10.08l-2.4,0l0,-13.48c0,-0.4 -0.2,-4.68 -0.2,-5l2.4,0c0.04,1.4 0.08,2.8 0.16,3.24c1.4,-2.48 3.4,-3.72 5.88,-3.72zm24.16,0c2.68,0 5.08,1.16 6.88,3.2l-1.92,1.44c-1.44,-1.52 -3,-2.48 -5,-2.48c-4.24,0 -7.28,3.24 -7.28,7.56s3,7.56 7.28,7.56c2.08,0 3.76,-1 5,-2.56l1.84,1.52c-1.8,2.16 -4.16,3.2 -6.8,3.2c-5.68,0 -9.72,-4.12 -9.72,-9.72c0,-5.64 4.12,-9.72 9.72,-9.72zm12.16,-8.64c1.04,0 1.8,0.8 1.8,1.8s-0.76,1.8 -1.8,1.8c-1,0 -1.8,-0.8 -1.8,-1.8s0.8,-1.8 1.8,-1.8zm-1.2,9.12l2.4,0l0,18.48l-2.4,0l0,-18.48zm6.56,2.16l0,-2.16l4,0l0,-5.32l2.4,0l0,5.32l5.28,0l0,2.16l-5.28,0l0,12.08c0,1.56 0.92,2.56 2.56,2.56c0.92,0 1.84,-0.24 2.72,-0.64l0.2,2.16c-1.08,0.4 -2.4,0.64 -3.16,0.64c-3.12,0 -4.72,-1.88 -4.72,-4.72l0,-12.08l-4,0zm20.88,16.4l-7.52,-18.56l2.68,0l6.12,15.56l5.96,-15.56l2.56,0l-9.48,24.12c-1,2.56 -2.56,3.96 -5.12,3.96c-0.8,0 -1.52,-0.12 -2.36,-0.36l0.24,-2.24c0.64,0.2 1.44,0.44 2.16,0.44c1.24,0 2.16,-0.72 3.04,-2.96l1.72,-4.4zm32.2,-19.04c4.88,0 8.68,3.4 8.68,8.88l0,1.44l-15.52,0c0.2,3.88 2.68,6.96 7,6.96c2.48,0 5,-1.32 6.2,-3.28l1.76,1.48c-1.88,2.8 -4.72,3.96 -8,3.96c-5.6,0 -9.36,-3.96 -9.36,-9.76c0,-5.36 3.72,-9.68 9.24,-9.68zm6.28,8.16c-0.04,-3.44 -2.92,-6 -6.44,-6c-3.64,0 -6.28,2.8 -6.68,6l13.12,0zm13.48,11.28c-3.96,0 -6.56,-2.12 -6.56,-5.48c0,-4.2 3.76,-6.2 10.08,-6.2l2.96,0l0,-1.08c0,-3.04 -2,-4.52 -5.2,-4.52c-2.12,0 -4,0.68 -5.64,2.08l-1.4,-1.64c1.76,-1.68 4.6,-2.6 7.04,-2.6c4.88,0 7.36,2.44 7.36,6.52l0,5.48c0,3.04 0.12,5.32 0.36,6.96l-2.24,0c-0.16,-0.84 -0.24,-1.76 -0.24,-3l-0.08,0c-1.4,2.4 -3.4,3.48 -6.44,3.48zm3.6,-9.76c-4.08,0 -7.76,1.16 -7.76,4.16c0,2.04 1.84,3.44 4.24,3.44c4.28,0 6.4,-2.44 6.4,-6.32l0,-1.28l-2.88,0zm16.48,-9.68c2.92,0 5.24,1.08 6.48,3.48l-2.16,1.28c-0.92,-1.72 -2.24,-2.6 -4.32,-2.6c-1.92,0 -3.96,1.16 -3.96,2.96c0,2.12 2.08,2.72 4.48,3.16c4.56,0.84 6.48,2.12 6.48,5.44c0,3.52 -2.8,5.72 -6.72,5.72c-3.36,0 -6,-1.32 -7.4,-3.76l2.12,-1.44c0.92,1.84 3.08,3.04 5.36,3.04c2.2,0 4.24,-1.36 4.24,-3.4c0,-2.4 -2.52,-2.92 -5.24,-3.48c-4.76,-1 -5.72,-2.76 -5.72,-5.08c0,-3.28 2.84,-5.32 6.36,-5.32zm16.92,19.04l-7.52,-18.56l2.68,0l6.12,15.56l5.96,-15.56l2.56,0l-9.48,24.12c-1,2.56 -2.56,3.96 -5.12,3.96c-0.8,0 -1.52,-0.12 -2.36,-0.36l0.24,-2.24c0.64,0.2 1.44,0.44 2.16,0.44c1.24,0 2.16,-0.72 3.04,-2.96l1.72,-4.4zm16.6,-28.4l2.4,0l0,20.88l-2.4,0l0,-20.88zm1.2,24.72c1.08,0 1.92,0.84 1.92,1.92s-0.84,1.92 -1.92,1.92s-1.92,-0.84 -1.92,-1.92s0.84,-1.92 1.92,-1.92z" id="svg_7"/>
  </g>
 </g>

</svg>