<?xml version="1.0" encoding="UTF-8"?>
<svg version="1.1" xmlns="http://www.w3.org/2000/svg" width="256" height="256">
<path d="M0 0 C0.99 0.33 1.98 0.66 3 1 C3.33 2.65 3.66 4.3 4 6 C5.32 6 6.64 6 8 6 C8 8.64 8 11.28 8 14 C8.99 14 9.98 14 11 14 C11 16.97 11 19.94 11 23 C13.31 23 15.62 23 18 23 C18 43.79 18 64.58 18 86 C21.3 86 24.6 86 28 86 C28 108.44 28 130.88 28 154 C31.3 153.67 34.6 153.34 38 153 C37.99777939 152.25053604 37.99555878 151.50107208 37.99327087 150.72889709 C37.97326821 143.68017709 37.958026 136.63146685 37.94818783 129.58272648 C37.94295998 125.9585404 37.93586413 122.3343777 37.92456055 118.71020508 C37.91372816 115.21540025 37.90772242 111.72061796 37.90512276 108.22579765 C37.90236449 106.23760611 37.89455312 104.24942369 37.88670349 102.26124573 C37.88662796 101.06007614 37.88655243 99.85890656 37.88647461 98.62133789 C37.884254 97.55766495 37.88203339 96.493992 37.87974548 95.39808655 C38 93 38 93 39 92 C40.92478813 91.84193469 42.8549921 91.748865 44.78515625 91.68359375 C45.95498047 91.64169922 47.12480469 91.59980469 48.33007812 91.55664062 C49.56177734 91.51732422 50.79347656 91.47800781 52.0625 91.4375 C53.91584961 91.37272461 53.91584961 91.37272461 55.80664062 91.30664062 C58.87097335 91.20015802 61.93539073 91.09814576 65 91 C64.99777939 90.25053604 64.99555878 89.50107208 64.99327087 88.72889709 C64.97326821 81.68017709 64.958026 74.63146685 64.94818783 67.58272648 C64.94295998 63.9585404 64.93586413 60.3343777 64.92456055 56.71020508 C64.91372816 53.21540025 64.90772242 49.72061796 64.90512276 46.22579765 C64.90236449 44.23760611 64.89455312 42.24942369 64.88670349 40.26124573 C64.88662796 39.06007614 64.88655243 37.85890656 64.88647461 36.62133789 C64.884254 35.55766495 64.88203339 34.493992 64.87974548 33.39808655 C65 31 65 31 66 30 C77.55 30 89.1 30 101 30 C101 79.5 101 129 101 180 C87.8 180.33 74.6 180.66 61 181 C60.67 182.65 60.34 184.3 60 186 C44.49 186 28.98 186 13 186 C13 183.03 13 180.06 13 177 C7.06 177.33 1.12 177.66 -5 178 C-5.33 179.32 -5.66 180.64 -6 182 C-19.53 182 -33.06 182 -47 182 C-47 178.37 -47 174.74 -47 171 C-61.52 171 -76.04 171 -91 171 C-91 175.95 -91 180.9 -91 186 C-104.2 186 -117.4 186 -131 186 C-131 162.9 -131 139.8 -131 116 C-118.79 116 -106.58 116 -94 116 C-94 125.24 -94 134.48 -94 144 C-90.04 144 -86.08 144 -82 144 C-82.08378906 142.15962158 -82.16757813 140.31924316 -82.25390625 138.4230957 C-82.51352156 132.29330391 -82.69643326 126.16482306 -82.82899475 120.03101826 C-82.91200357 116.31658775 -83.02417047 112.60817861 -83.20703125 108.8972168 C-84.45554914 82.89631663 -84.45554914 82.89631663 -78.51220703 76.23120117 C-75.22446804 73.30428543 -71.6914035 71.08872318 -67.80523682 69.04345703 C-65.38705975 67.6457103 -63.74986958 65.73658094 -61.875 63.6875 C-53.06073642 57.78921974 -38.93397989 60.34433669 -29 62 C-29 84.11 -29 106.22 -29 129 C-25.7 129 -22.4 129 -19 129 C-19 115.8 -19 102.6 -19 89 C-16.69 89 -14.38 89 -12 89 C-12 67.22 -12 45.44 -12 23 C-9.69 23 -7.38 23 -5 23 C-5 20.03 -5 17.06 -5 14 C-3.68 14 -2.36 14 -1 14 C-1.01160156 13.07316406 -1.02320313 12.14632812 -1.03515625 11.19140625 C-1.04417969 9.99386719 -1.05320313 8.79632813 -1.0625 7.5625 C-1.07410156 6.36753906 -1.08570313 5.17257813 -1.09765625 3.94140625 C-1 1 -1 1 0 0 Z M-5 30 C-6.20561184 30.98267859 -6.20561184 30.98267859 -6.09765625 32.84765625 C-6.08605469 33.57855469 -6.07445312 34.30945313 -6.0625 35.0625 C-6.041875 36.361875 -6.02125 37.66125 -6 39 C-5.34 39 -4.68 39 -4 39 C-4 36.03 -4 33.06 -4 30 C-4.33 30 -4.66 30 -5 30 Z M3 30 C1.79438816 30.98267859 1.79438816 30.98267859 1.90234375 32.84765625 C1.91394531 33.57855469 1.92554688 34.30945313 1.9375 35.0625 C1.958125 36.361875 1.97875 37.66125 2 39 C2.66 39 3.32 39 4 39 C4 36.03 4 33.06 4 30 C3.67 30 3.34 30 3 30 Z M11 30 C9.79438816 30.98267859 9.79438816 30.98267859 9.90234375 32.84765625 C9.91394531 33.57855469 9.92554688 34.30945313 9.9375 35.0625 C9.958125 36.361875 9.97875 37.66125 10 39 C10.66 39 11.32 39 12 39 C12 36.03 12 33.06 12 30 C11.67 30 11.34 30 11 30 Z M75 41 C75 42.98 75 44.96 75 47 C77.31 47 79.62 47 82 47 C82 45.02 82 43.04 82 41 C79.69 41 77.38 41 75 41 Z M87 41 C87 42.98 87 44.96 87 47 C88.98 47 90.96 47 93 47 C93 45.02 93 43.04 93 41 C91.02 41 89.04 41 87 41 Z M-6 47 C-6 49.97 -6 52.94 -6 56 C-5.34 56 -4.68 56 -4 56 C-4 53.03 -4 50.06 -4 47 C-4.66 47 -5.32 47 -6 47 Z M2 47 C2 49.97 2 52.94 2 56 C2.66 56 3.32 56 4 56 C4 53.03 4 50.06 4 47 C3.34 47 2.68 47 2 47 Z M10 47 C10 49.97 10 52.94 10 56 C10.66 56 11.32 56 12 56 C12 53.03 12 50.06 12 47 C11.34 47 10.68 47 10 47 Z M75 52 C75 54.31 75 56.62 75 59 C76.99954746 59.04254356 79.00041636 59.04080783 81 59 C82.35618499 57.87465895 82.35618499 57.87465895 82.0625 54.9375 C82.041875 53.968125 82.02125 52.99875 82 52 C79.69 52 77.38 52 75 52 Z M87 52 C87 54.31 87 56.62 87 59 C88.98 59 90.96 59 93 59 C93 56.69 93 54.38 93 52 C91.02 52 89.04 52 87 52 Z M-6 64 C-6 65.98 -6 67.96 -6 70 C-5.34 70 -4.68 70 -4 70 C-4 68.02 -4 66.04 -4 64 C-4.66 64 -5.32 64 -6 64 Z M2 64 C2 65.98 2 67.96 2 70 C2.66 70 3.32 70 4 70 C4 68.02 4 66.04 4 64 C3.34 64 2.68 64 2 64 Z M10 64 C10 65.98 10 67.96 10 70 C10.66 70 11.32 70 12 70 C12 68.02 12 66.04 12 64 C11.34 64 10.68 64 10 64 Z M75 64 C75 65.98 75 67.96 75 70 C77.31 70 79.62 70 82 70 C82 68.02 82 66.04 82 64 C79.69 64 77.38 64 75 64 Z M87 64 C87 65.98 87 67.96 87 70 C88.98 70 90.96 70 93 70 C93 68.02 93 66.04 93 64 C91.02 64 89.04 64 87 64 Z M-6 78 C-6 79.98 -6 81.96 -6 84 C-5.34 84 -4.68 84 -4 84 C-4 82.02 -4 80.04 -4 78 C-4.66 78 -5.32 78 -6 78 Z M2 78 C2 79.98 2 81.96 2 84 C2.66 84 3.32 84 4 84 C4 82.02 4 80.04 4 78 C3.34 78 2.68 78 2 78 Z M10 78 C10 79.98 10 81.96 10 84 C10.66 84 11.32 84 12 84 C12 82.02 12 80.04 12 78 C11.34 78 10.68 78 10 78 Z M-58 82 C-58 83.98 -58 85.96 -58 88 C-56.02 88 -54.04 88 -52 88 C-52 86.02 -52 84.04 -52 82 C-53.98 82 -55.96 82 -58 82 Z M-47 82 C-47 83.98 -47 85.96 -47 88 C-44.69 88 -42.38 88 -40 88 C-40 86.02 -40 84.04 -40 82 C-42.31 82 -44.62 82 -47 82 Z M-70 93 C-70 95.31 -70 97.62 -70 100 C-68.02 100 -66.04 100 -64 100 C-62.768606 97.53721199 -62.92840804 95.7204945 -63 93 C-65.31 93 -67.62 93 -70 93 Z M-58 93 C-58 95.31 -58 97.62 -58 100 C-56.02 100 -54.04 100 -52 100 C-52 97.69 -52 95.38 -52 93 C-53.98 93 -55.96 93 -58 93 Z M-47 93 C-47 95.31 -47 97.62 -47 100 C-45.00045254 100.04254356 -42.99958364 100.04080783 -41 100 C-39.64381501 98.87465895 -39.64381501 98.87465895 -39.9375 95.9375 C-39.958125 94.968125 -39.97875 93.99875 -40 93 C-42.31 93 -44.62 93 -47 93 Z M13 94 C13 96.31 13 98.62 13 101 C14.98 101 16.96 101 19 101 C19 98.69 19 96.38 19 94 C17.02 94 15.04 94 13 94 Z M48 103 C48 105.31 48 107.62 48 110 C49.98 110 51.96 110 54 110 C54 107.69 54 105.38 54 103 C52.02 103 50.04 103 48 103 Z M-70 105 C-70 106.98 -70 108.96 -70 111 C-67.69 111 -65.38 111 -63 111 C-63 109.02 -63 107.04 -63 105 C-65.31 105 -67.62 105 -70 105 Z M-58 105 C-58 106.98 -58 108.96 -58 111 C-56.02 111 -54.04 111 -52 111 C-52 109.02 -52 107.04 -52 105 C-53.98 105 -55.96 105 -58 105 Z M-47 105 C-47 106.98 -47 108.96 -47 111 C-44.69 111 -42.38 111 -40 111 C-40 109.02 -40 107.04 -40 105 C-42.31 105 -44.62 105 -47 105 Z M1 106 C1 107.98 1 109.96 1 112 C3.31 112 5.62 112 8 112 C8 110.02 8 108.04 8 106 C5.69 106 3.38 106 1 106 Z M13 106 C13 107.98 13 109.96 13 112 C14.98 112 16.96 112 19 112 C19 110.02 19 108.04 19 106 C17.02 106 15.04 106 13 106 Z M48 115 C48 116.98 48 118.96 48 121 C49.98 121 51.96 121 54 121 C54 119.02 54 117.04 54 115 C52.02 115 50.04 115 48 115 Z M59 115 C59 116.98 59 118.96 59 121 C61.31 121 63.62 121 66 121 C66 119.02 66 117.04 66 115 C63.69 115 61.38 115 59 115 Z M1 117 C1 119.31 1 121.62 1 124 C3.31 124 5.62 124 8 124 C8 121.69 8 119.38 8 117 C5.69 117 3.38 117 1 117 Z M13 117 C13 119.31 13 121.62 13 124 C14.98 124 16.96 124 19 124 C19 121.69 19 119.38 19 117 C17.02 117 15.04 117 13 117 Z M48 126 C48 128.31 48 130.62 48 133 C49.98 133 51.96 133 54 133 C54 130.69 54 128.38 54 126 C52.02 126 50.04 126 48 126 Z M59 126 C59 128.31 59 130.62 59 133 C61.31 133 63.62 133 66 133 C66 130.69 66 128.38 66 126 C63.69 126 61.38 126 59 126 Z M-122 129 C-122.04080783 130.99958364 -122.04254356 133.00045254 -122 135 C-119.69 135 -117.38 135 -115 135 C-115 132.69 -115 130.38 -115 128 C-118.80621045 127.56152641 -118.80621045 127.56152641 -122 129 Z M-110 128 C-110 130.31 -110 132.62 -110 135 C-108.02 135 -106.04 135 -104 135 C-104 132.69 -104 130.38 -104 128 C-105.98 128 -107.96 128 -110 128 Z M-122 140 C-122 141.98 -122 143.96 -122 146 C-119.69 146 -117.38 146 -115 146 C-115 144.02 -115 142.04 -115 140 C-117.31 140 -119.62 140 -122 140 Z M-110 140 C-110 141.98 -110 143.96 -110 146 C-108.02 146 -106.04 146 -104 146 C-104 144.02 -104 142.04 -104 140 C-105.98 140 -107.96 140 -110 140 Z " fill="#FF7148" transform="translate(143,35)"/>
</svg>
